<svg xmlns="http://www.w3.org/2000/svg" viewBox="0 0 128 128" width="128" height="128" fill="none">
  <defs>
    <linearGradient id="lid" x1="35" y1="17" x2="93" y2="31" gradientUnits="userSpaceOnUse">
      <stop stop-color="#fcd34d" />
      <stop offset="1" stop-color="#f59e0b" />
    </linearGradient>
    <linearGradient id="glass" x1="29" y1="35" x2="103" y2="111" gradientUnits="userSpaceOnUse">
      <stop stop-color="#fffef9" />
      <stop offset="1" stop-color="#fff7ed" />
    </linearGradient>
  </defs>
  <rect x="31" y="17" width="66" height="13" rx="6.5" fill="url(#lid)" stroke="#c2410c" stroke-width="6" />
  <path d="M39 30H89C100 34 108 44 108 57V88C108 101 98 111 85 111H43C30 111 20 101 20 88V57C20 44 28 34 39 30Z" fill="url(#glass)" stroke="#c2410c" stroke-width="6" />
  <path d="M40 48C34 58 34 75 40 86" stroke="white" stroke-linecap="round" stroke-width="7" opacity=".55" />
  <path d="M81 38C91 43 96 51 96 63" stroke="white" stroke-linecap="round" stroke-width="4" opacity=".28" />
</svg>